<svg width="24" height="20" viewBox="0 0 24 20" fill="none" xmlns="http://www.w3.org/2000/svg">
<path fill-rule="evenodd" clip-rule="evenodd" d="M19.7143 0.869563C19.7143 0.389317 20.098 0 20.5714 0H23.1429C23.6162 0 24 0.389316 24 0.869563C24 1.34981 23.6162 1.73913 23.1429 1.73913L21.7909 1.73913L16.7736 10.5552L18 13.0435H19.7143C21.6078 13.0435 23.1429 14.6008 23.1429 16.5217C23.1429 18.4427 21.6078 20 19.7143 20C17.8207 20 16.2857 18.4427 16.2857 16.5217C16.2857 15.8882 16.4527 15.2942 16.7444 14.7826H12.3985C12.6902 15.2942 12.8571 15.8882 12.8571 16.5217C12.8571 18.4427 11.3221 20 9.42857 20C7.53502 20 6 18.4427 6 16.5217C6 14.6008 7.53502 13.0435 9.42857 13.0435H16.0834L15.2262 11.3043L6.01656 11.3043C5.98245 11.305 5.9484 11.3035 5.91461 11.3001C5.79461 11.288 5.68189 11.2509 5.58162 11.1939C5.48306 11.1381 5.39427 11.0619 5.322 10.9668C5.30052 10.9387 5.2807 10.9092 5.26269 10.8785L0.734811 3.46949C0.319371 3.40926 0 3.04683 0 2.60872C0 2.12847 0.383756 1.73915 0.857143 1.73915L19.7143 1.73915C19.7461 1.73915 19.7775 1.74091 19.8084 1.74434L19.9596 1.4786C19.8079 1.32172 19.7143 1.10673 19.7143 0.869563ZM15.3575 9.56519L6.47713 9.56519L2.75721 3.47828L18.8216 3.47828L15.3575 9.56519ZM9.42857 14.7826C8.4818 14.7826 7.71429 15.5613 7.71429 16.5217C7.71429 17.4822 8.4818 18.2609 9.42857 18.2609C10.3753 18.2609 11.1429 17.4822 11.1429 16.5217C11.1429 15.5613 10.3753 14.7826 9.42857 14.7826ZM19.7143 14.7826C18.7675 14.7826 18 15.5613 18 16.5217C18 17.4822 18.7675 18.2609 19.7143 18.2609C20.6611 18.2609 21.4286 17.4822 21.4286 16.5217C21.4286 15.5613 20.6611 14.7826 19.7143 14.7826Z" fill="#5A5A5A"/>
</svg>
