<svg width="50" height="50" viewBox="0 0 50 50" fill="none" xmlns="http://www.w3.org/2000/svg">
<circle cx="25.12" cy="25" r="24" stroke="black" stroke-width="1.5"/>
<path fill-rule="evenodd" clip-rule="evenodd" d="M21.8859 25.2878V36.0878C21.8859 36.2318 22.0438 36.3758 22.2017 36.3758H26.6221C26.7799 36.3758 26.9378 36.2318 26.9378 36.0878V25.1438H30.1479C30.3057 25.1438 30.4636 25.0478 30.4636 24.9038L30.7793 21.5918C30.7793 21.4478 30.6741 21.3038 30.4636 21.3038H26.9378V18.9518C26.9378 18.3758 27.4114 17.9438 28.0429 17.9438H30.5162C30.6741 17.9438 30.832 17.7998 30.832 17.6558V14.2958C30.832 14.1518 30.6741 14.0078 30.5162 14.0078H26.3589C23.9383 14.0078 21.9386 15.8318 21.9386 18.0398V21.2558H19.6757C19.5179 21.2558 19.36 21.3998 19.36 21.5438V24.8558C19.36 24.9998 19.5179 25.1438 19.6757 25.1438H21.8859V25.2878Z" stroke="black" stroke-width="1.5" stroke-miterlimit="10" stroke-linejoin="round"/>
</svg>
