<svg width="50" height="50" viewBox="0 0 50 50" fill="none" xmlns="http://www.w3.org/2000/svg">
<circle cx="25" cy="25" r="24" stroke="black" stroke-width="1.5"/>
<path d="M19.0001 24.3788V26.7788H24.6641C23.9921 29.7068 21.9281 31.5308 19.1441 31.5308C15.4961 31.5308 12.5681 28.5548 12.5681 24.9548C12.5681 21.3548 15.4961 18.3308 19.1441 18.3308C20.8721 18.3308 22.4561 19.0028 23.6081 20.1068L25.4801 18.5228C23.8481 16.8428 21.5921 15.8828 19.1441 15.8828C14.1521 15.8828 10.1201 19.9148 10.1201 24.9068C10.1201 29.8988 14.1521 33.9308 19.1441 33.9308C23.9441 33.9308 27.4001 30.2828 27.4001 25.2908V24.3788H19.0001Z" stroke="black" stroke-width="1.5" stroke-miterlimit="10" stroke-linejoin="round"/>
<path d="M39.496 24.4767H35.992V20.9727H33.784V24.4767H30.328V26.6847H33.784V30.1407H35.992V26.6847H39.496V24.4767Z" stroke="black" stroke-width="1.5" stroke-miterlimit="10" stroke-linejoin="round"/>
</svg>
