<svg width="85" height="16" viewBox="0 0 85 16" fill="none" xmlns="http://www.w3.org/2000/svg">
<path d="M12.9766 3.9668C11.8327 3.68424 10.7412 3.54297 9.70215 3.54297C8.02962 3.54297 6.96777 3.99414 6.5166 4.89648C6.37988 5.16992 6.31152 5.4821 6.31152 5.83301C6.31152 6.59863 6.51432 7.18197 6.91992 7.58301C7.32552 7.98405 7.87695 8.18457 8.57422 8.18457C9.02539 8.18457 9.40137 8.09342 9.70215 7.91113C10.0075 7.72884 10.2308 7.50098 10.3721 7.22754H8.74512L8.83398 5.25195C8.87044 5.25651 9.69759 5.2679 11.3154 5.28613C12.9378 5.2998 13.8014 5.31803 13.9062 5.34082V10.6523L12.6211 10.7207L12.416 9.32617C12.0195 9.8138 11.3564 10.208 10.4268 10.5088C9.49707 10.8096 8.63346 10.96 7.83594 10.96C7.03841 10.96 6.30697 10.8984 5.6416 10.7754C4.97624 10.6523 4.35645 10.4587 3.78223 10.1943C3.20801 9.92546 2.71126 9.59961 2.29199 9.2168C1.87728 8.82943 1.55143 8.35547 1.31445 7.79492C1.07747 7.23438 0.958984 6.58724 0.958984 5.85352C0.958984 5.11979 1.10938 4.44076 1.41016 3.81641C1.71094 3.19206 2.11654 2.67708 2.62695 2.27148C4.08073 1.10938 6.25684 0.52832 9.15527 0.52832C9.6429 0.52832 10.2878 0.571615 11.0898 0.658203C11.8965 0.740234 12.5254 0.838216 12.9766 0.952148V3.9668ZM20.4627 9.03906C21.0051 9.03906 21.4152 8.85905 21.6932 8.49902C21.9758 8.139 22.117 7.68783 22.117 7.14551C22.117 6.60319 21.9666 6.17253 21.6659 5.85352C21.3696 5.52995 20.9595 5.36816 20.4354 5.36816C19.9113 5.36816 19.5148 5.55501 19.2459 5.92871C18.9816 6.29785 18.8495 6.73307 18.8495 7.23438C18.8495 8.4375 19.3872 9.03906 20.4627 9.03906ZM15.0623 7.28906C15.0623 4.65495 16.981 3.33789 20.8182 3.33789C22.2492 3.33789 23.4341 3.66146 24.3729 4.30859C24.8286 4.61849 25.1818 5.00814 25.4325 5.47754C25.6877 5.94694 25.8153 6.44368 25.8153 6.96777C25.8153 8.33952 25.3527 9.33984 24.4276 9.96875C23.507 10.5931 22.1489 10.9053 20.3534 10.9053C16.826 10.9053 15.0623 9.69987 15.0623 7.28906ZM31.9411 9.03906C32.4834 9.03906 32.8936 8.85905 33.1716 8.49902C33.4541 8.139 33.5954 7.68783 33.5954 7.14551C33.5954 6.60319 33.445 6.17253 33.1442 5.85352C32.848 5.52995 32.4378 5.36816 31.9137 5.36816C31.3897 5.36816 30.9932 5.55501 30.7243 5.92871C30.46 6.29785 30.3278 6.73307 30.3278 7.23438C30.3278 8.4375 30.8656 9.03906 31.9411 9.03906ZM26.5407 7.28906C26.5407 4.65495 28.4593 3.33789 32.2966 3.33789C33.7276 3.33789 34.9124 3.66146 35.8512 4.30859C36.307 4.61849 36.6602 5.00814 36.9108 5.47754C37.166 5.94694 37.2936 6.44368 37.2936 6.96777C37.2936 8.33952 36.8311 9.33984 35.9059 9.96875C34.9854 10.5931 33.6273 10.9053 31.8317 10.9053C28.3044 10.9053 26.5407 9.69987 26.5407 7.28906ZM38.5523 8.36914C39.9878 8.66992 41.1682 8.82031 42.0933 8.82031C43.0184 8.82031 43.481 8.75195 43.481 8.61523C43.481 8.47396 43.3784 8.37142 43.1734 8.30762C42.9728 8.23926 42.4146 8.1276 41.4986 7.97266C40.5871 7.81771 39.9445 7.66732 39.5708 7.52148C38.5864 7.14779 38.0943 6.58496 38.0943 5.83301C38.0988 5.1722 38.3517 4.65951 38.853 4.29492C39.7235 3.6569 41.1362 3.33789 43.0913 3.33789C44.2626 3.33789 45.4178 3.48145 46.5571 3.76855L46.229 5.68262C45.9191 5.60514 45.3905 5.52767 44.6431 5.4502C43.9002 5.37272 43.244 5.33398 42.6743 5.33398C42.1092 5.33398 41.8267 5.41146 41.8267 5.56641C41.8267 5.66667 41.8836 5.7373 41.9976 5.77832C42.1161 5.81934 42.508 5.88314 43.1734 5.96973C43.8387 6.05632 44.315 6.12923 44.6021 6.18848C45.6821 6.40723 46.4068 6.77637 46.7759 7.2959C47.0129 7.62402 47.1314 7.98405 47.1314 8.37598C47.1314 8.76335 47.0904 9.07324 47.0083 9.30566C46.8215 9.82975 46.3657 10.2285 45.6411 10.502C44.9211 10.7708 43.8251 10.9053 42.353 10.9053C41.5829 10.9053 40.7831 10.8529 39.9536 10.748C39.1242 10.6478 38.5067 10.486 38.1011 10.2627L38.5523 8.36914ZM54.2689 6.37305C54.2643 5.94466 54.1641 5.6416 53.9681 5.46387C53.7767 5.28613 53.4942 5.19727 53.1205 5.19727C52.7513 5.19727 52.4528 5.30892 52.225 5.53223C51.9971 5.75098 51.8558 6.02669 51.8011 6.35938L54.2689 6.37305ZM56.9486 10.0918C56.666 10.306 56.1625 10.4928 55.4379 10.6523C54.7132 10.8164 54.0091 10.8984 53.3255 10.8984C52.6465 10.8984 52.07 10.8665 51.5961 10.8027C51.1221 10.7389 50.6527 10.625 50.1879 10.4609C49.723 10.2923 49.3242 10.0804 48.9916 9.8252C48.6634 9.56543 48.3968 9.23047 48.1918 8.82031C47.9867 8.4056 47.8841 7.91113 47.8841 7.33691C47.8841 6.75814 47.989 6.22721 48.1986 5.74414C48.4082 5.26107 48.6794 4.87142 49.0121 4.5752C49.9372 3.75033 51.277 3.33789 53.0316 3.33789C53.8656 3.33789 54.6586 3.4974 55.4105 3.81641C56.1625 4.14453 56.6979 4.63672 57.017 5.29297C57.1992 5.66211 57.2904 6.06999 57.2904 6.5166L57.2084 7.64453L51.6644 7.61719C51.7738 8.0319 52.0381 8.35775 52.4574 8.59473C52.8812 8.83171 53.4577 8.9502 54.1869 8.9502C54.916 8.9502 55.7569 8.75195 56.7093 8.35547H57.0785L56.9486 10.0918ZM61.2629 8.27344V10.2695L61.2355 10.7959H58.5285C58.5194 10.6227 58.5148 10.306 58.5148 9.8457V8.25293H60.8322L61.2629 8.27344ZM66.794 0.822266L66.7803 1.48535C66.7803 1.68132 66.7598 2.15299 66.7188 2.90039C66.6823 3.64779 66.6618 4.08301 66.6573 4.20605C67.0355 3.94629 67.4776 3.73665 67.9834 3.57715C68.4939 3.41764 68.9952 3.33789 69.4873 3.33789C70.9867 3.33789 72.1648 3.79818 73.0215 4.71875C73.5912 5.33398 73.876 6.10872 73.876 7.04297C73.876 7.5625 73.7461 8.06152 73.4864 8.54004C73.2312 9.01855 72.8894 9.43099 72.461 9.77734C72.0371 10.1191 71.5336 10.3926 70.9502 10.5977C70.3715 10.8027 69.7312 10.9053 69.0293 10.9053C68.3275 10.9053 67.6371 10.7708 66.958 10.502C66.279 10.2331 65.7367 9.85026 65.3311 9.35352V9.32617C65.3129 9.38086 65.1898 9.58594 64.962 9.94141C64.7341 10.2969 64.6042 10.4814 64.5723 10.4951C64.545 10.5088 64.2943 10.5544 63.8204 10.6318C63.3464 10.7093 63.0456 10.748 62.918 10.748C62.7904 10.748 62.6719 10.7025 62.5625 10.6113L62.9248 1.97754V1.06152C64.4971 0.851888 65.4769 0.74707 65.8643 0.74707C66.2562 0.74707 66.5661 0.772135 66.794 0.822266ZM68.1202 8.91602C68.6351 8.91602 69.043 8.74284 69.3438 8.39648C69.6446 8.05013 69.795 7.64681 69.795 7.18652C69.795 6.72168 69.6491 6.3252 69.3575 5.99707C69.0704 5.66439 68.667 5.49805 68.1475 5.49805C67.8011 5.49805 67.5004 5.58464 67.2452 5.75781C66.7621 6.08594 66.5205 6.57129 66.5205 7.21387C66.5205 7.67415 66.6595 8.07292 66.9375 8.41016C67.2155 8.7474 67.6097 8.91602 68.1202 8.91602ZM77.6913 11.6367L77.1171 10.6045C76.7343 9.91634 76.0848 8.65853 75.1688 6.83105C74.2528 5.00358 73.7401 3.9987 73.6307 3.81641L77.6229 3.64551L79.5438 8.0957C79.6304 7.86328 79.8697 7.14095 80.2616 5.92871C80.6581 4.71647 80.9179 3.95768 81.0409 3.65234C81.205 3.63867 81.3576 3.63184 81.4989 3.63184C81.4989 3.63184 82.5266 3.67057 84.5819 3.74805C84.1034 4.89648 83.4221 6.48242 82.538 8.50586C81.6493 10.5384 81.1389 11.6823 81.0067 11.9375C80.6649 12.6029 80.2707 13.1725 79.8241 13.6465C78.858 14.6764 77.5295 15.1914 75.8388 15.1914L74.6561 13.2773C74.9296 13.2773 75.3352 13.1725 75.8729 12.9629C76.9074 12.5527 77.5136 12.1107 77.6913 11.6367Z" fill="#FF9900"/>
<path d="M12.9766 3.9668L12.9406 4.11242C12.9854 4.12348 13.0327 4.11333 13.069 4.0849C13.1053 4.05647 13.1266 4.01291 13.1266 3.9668H12.9766ZM6.91992 7.58301L7.02539 7.47634L6.91992 7.58301ZM9.70215 7.91113L9.62526 7.78234L9.6244 7.78285L9.70215 7.91113ZM10.3721 7.22754L10.5053 7.29639C10.5294 7.24989 10.5274 7.19423 10.5002 7.14953C10.473 7.10482 10.4244 7.07754 10.3721 7.07754V7.22754ZM8.74512 7.22754L8.59527 7.2208C8.59343 7.26171 8.60839 7.30159 8.63669 7.33119C8.66499 7.3608 8.70417 7.37754 8.74512 7.37754V7.22754ZM8.83398 5.25195L8.85259 5.10311C8.81106 5.09792 8.76925 5.11031 8.73727 5.1373C8.70528 5.16428 8.68602 5.2034 8.68414 5.24521L8.83398 5.25195ZM11.3154 5.28613L11.3137 5.43612L11.3142 5.43613L11.3154 5.28613ZM13.9062 5.34082H14.0562C14.0562 5.27026 14.0071 5.20923 13.9381 5.19424L13.9062 5.34082ZM13.9062 10.6523L13.9142 10.8021C13.9939 10.7979 14.0562 10.7321 14.0562 10.6523H13.9062ZM12.6211 10.7207L12.4727 10.7425C12.484 10.8192 12.5517 10.8746 12.6291 10.8705L12.6211 10.7207ZM12.416 9.32617L12.5644 9.30435C12.5558 9.24549 12.5131 9.19731 12.4558 9.18154C12.3984 9.16577 12.3372 9.18538 12.2996 9.23154L12.416 9.32617ZM3.78223 10.1943L3.71862 10.3302L3.71951 10.3306L3.78223 10.1943ZM2.29199 9.2168L2.18959 9.32642L2.19085 9.32757L2.29199 9.2168ZM1.41016 3.81641L1.27502 3.7513L1.41016 3.81641ZM2.62695 2.27148L2.72027 2.38892L2.72061 2.38865L2.62695 2.27148ZM11.0898 0.658203L11.0737 0.80734L11.0747 0.807434L11.0898 0.658203ZM12.9766 0.952148H13.1266C13.1266 0.883451 13.0799 0.823534 13.0133 0.806714L12.9766 0.952148ZM13.0125 3.82117C11.8584 3.5361 10.7548 3.39297 9.70215 3.39297V3.69297C10.7276 3.69297 11.8069 3.83239 12.9406 4.11242L13.0125 3.82117ZM9.70215 3.39297C8.01273 3.39297 6.87296 3.84835 6.38244 4.8294L6.65077 4.96357C7.06259 4.13993 8.04651 3.69297 9.70215 3.69297V3.39297ZM6.38244 4.8294C6.23386 5.12655 6.16152 5.46226 6.16152 5.83301H6.46152C6.46152 5.50193 6.5259 5.21329 6.65077 4.96357L6.38244 4.8294ZM6.16152 5.83301C6.16152 6.62455 6.37166 7.25185 6.81446 7.68967L7.02539 7.47634C6.65699 7.11208 6.46152 6.57272 6.46152 5.83301H6.16152ZM6.81446 7.68967C7.25414 8.12441 7.84679 8.33457 8.57422 8.33457V8.03457C7.90711 8.03457 7.3969 7.84369 7.02539 7.47634L6.81446 7.68967ZM8.57422 8.33457C9.04518 8.33457 9.44991 8.2394 9.77989 8.03941L9.6244 7.78285C9.35283 7.94744 9.0056 8.03457 8.57422 8.03457V8.33457ZM9.77904 8.03993C10.1046 7.84557 10.3493 7.59834 10.5053 7.29639L10.2388 7.15869C10.1123 7.40362 9.91039 7.61211 9.62526 7.78234L9.77904 8.03993ZM10.3721 7.07754H8.74512V7.37754H10.3721V7.07754ZM8.89497 7.23428L8.98383 5.25869L8.68414 5.24521L8.59527 7.2208L8.89497 7.23428ZM8.81538 5.40079C8.82927 5.40253 8.85627 5.40327 8.88071 5.40393C8.9106 5.40473 8.95271 5.40563 9.00681 5.40663C9.11512 5.40863 9.27277 5.41105 9.47962 5.4139C9.89339 5.4196 10.5048 5.42701 11.3137 5.43612L11.3171 5.13614C10.5082 5.12703 9.89714 5.11962 9.48376 5.11393C9.27703 5.11108 9.11994 5.10867 9.01235 5.10668C8.95851 5.10568 8.91738 5.1048 8.88873 5.10404C8.85463 5.10312 8.84781 5.10251 8.85259 5.10311L8.81538 5.40079ZM11.3142 5.43613C12.1252 5.44296 12.7459 5.45093 13.1768 5.46002C13.3923 5.46457 13.5595 5.46939 13.679 5.47445C13.7388 5.47698 13.7858 5.47954 13.8204 5.48209C13.8377 5.48336 13.8511 5.48457 13.8611 5.48568C13.8721 5.4869 13.8755 5.48764 13.8744 5.4874L13.9381 5.19424C13.8962 5.18513 13.8069 5.1796 13.6917 5.17472C13.5691 5.16953 13.3994 5.16466 13.1831 5.16009C12.7503 5.15096 12.1281 5.14298 11.3167 5.13614L11.3142 5.43613ZM13.7563 5.34082V10.6523H14.0562V5.34082H13.7563ZM13.8983 10.5026L12.6131 10.5709L12.6291 10.8705L13.9142 10.8021L13.8983 10.5026ZM12.7695 10.6989L12.5644 9.30435L12.2676 9.348L12.4727 10.7425L12.7695 10.6989ZM12.2996 9.23154C11.9289 9.68745 11.2968 10.0696 10.3806 10.3661L10.4729 10.6515C11.4161 10.3464 12.1101 9.94015 12.5324 9.4208L12.2996 9.23154ZM10.3806 10.3661C9.46258 10.6631 8.61472 10.81 7.83594 10.81V11.11C8.65221 11.11 9.53156 10.9561 10.4729 10.6515L10.3806 10.3661ZM7.83594 10.81C7.04599 10.81 6.32382 10.749 5.66888 10.6279L5.61432 10.9229C6.29011 11.0479 7.03083 11.11 7.83594 11.11V10.81ZM5.66888 10.6279C5.01489 10.5069 4.4071 10.3168 3.84495 10.0581L3.71951 10.3306C4.30579 10.6005 4.93758 10.7977 5.61432 10.9229L5.66888 10.6279ZM3.84584 10.0585C3.28374 9.79529 2.80001 9.47752 2.39313 9.10602L2.19085 9.32757C2.62252 9.7217 3.13228 10.0556 3.71862 10.3302L3.84584 10.0585ZM2.39438 9.10718C1.99615 8.7352 1.682 8.27909 1.45261 7.73651L1.17629 7.85333C1.42087 8.43184 1.75841 8.92365 2.1896 9.32642L2.39438 9.10718ZM1.45261 7.73651C1.22488 7.19783 1.10898 6.57121 1.10898 5.85352H0.808984C0.808984 6.60327 0.930068 7.27092 1.17629 7.85333L1.45261 7.73651ZM1.10898 5.85352C1.10898 5.14098 1.25487 4.48436 1.54529 3.88151L1.27502 3.7513C0.963884 4.39715 0.808984 5.09861 0.808984 5.85352H1.10898ZM1.54529 3.88151C1.83689 3.27622 2.22867 2.77957 2.72027 2.38892L2.53363 2.15405C2.0044 2.5746 1.58498 3.10789 1.27502 3.7513L1.54529 3.88151ZM2.72061 2.38865C4.13656 1.25678 6.27298 0.67832 9.15527 0.67832V0.37832C6.2407 0.37832 4.0249 0.96197 2.53329 2.15432L2.72061 2.38865ZM9.15527 0.67832C9.6352 0.67832 10.274 0.721005 11.0737 0.807337L11.1059 0.50907C10.3015 0.422224 9.65061 0.37832 9.15527 0.37832V0.67832ZM11.0747 0.807434C11.8785 0.889182 12.4991 0.986279 12.9398 1.09758L13.0133 0.806714C12.5517 0.690153 11.9144 0.591287 11.105 0.508973L11.0747 0.807434ZM12.8266 0.952148V3.9668H13.1266V0.952148H12.8266ZM21.6932 8.49902L21.5752 8.40641L21.5745 8.40735L21.6932 8.49902ZM21.6659 5.85352L21.5552 5.95481L21.5567 5.95642L21.6659 5.85352ZM19.2459 5.92871L19.1242 5.8411L19.124 5.84138L19.2459 5.92871ZM24.3729 4.30859L24.2878 4.4321L24.2885 4.43263L24.3729 4.30859ZM25.4325 5.47754L25.3001 5.5482L25.3007 5.54919L25.4325 5.47754ZM24.4276 9.96875L24.5118 10.0929L24.5119 10.0928L24.4276 9.96875ZM20.4627 9.18906C21.0415 9.18906 21.4999 8.99477 21.8119 8.5907L21.5745 8.40735C21.3305 8.72333 20.9686 8.88906 20.4627 8.88906V9.18906ZM21.8112 8.59163C22.1181 8.20053 22.267 7.71496 22.267 7.14551H21.967C21.967 7.66069 21.8334 8.07747 21.5752 8.40642L21.8112 8.59163ZM22.267 7.14551C22.267 6.57445 22.1079 6.10369 21.775 5.75061L21.5567 5.95642C21.8254 6.24136 21.967 6.63193 21.967 7.14551H22.267ZM21.7765 5.75223C21.4464 5.39161 20.9927 5.21816 20.4354 5.21816V5.51816C20.9263 5.51816 21.2929 5.66828 21.5552 5.9548L21.7765 5.75223ZM20.4354 5.21816C19.8707 5.21816 19.4255 5.42238 19.1242 5.8411L19.3677 6.01632C19.6042 5.68764 19.9519 5.51816 20.4354 5.51816V5.21816ZM19.124 5.84138C18.8395 6.23864 18.6995 6.70517 18.6995 7.23438H18.9995C18.9995 6.76097 19.1237 6.35707 19.3679 6.01604L19.124 5.84138ZM18.6995 7.23438C18.6995 7.85517 18.8378 8.34878 19.1409 8.68786C19.4469 9.03014 19.8972 9.18906 20.4627 9.18906V8.88906C19.9527 8.88906 19.5964 8.7472 19.3646 8.48792C19.13 8.22544 18.9995 7.8167 18.9995 7.23438H18.6995ZM15.2123 7.28906C15.2123 6.01385 15.6735 5.07587 16.5862 4.44935C17.509 3.81586 18.9121 3.48789 20.8182 3.48789V3.18789C18.8871 3.18789 17.4122 3.51845 16.4164 4.20202C15.4105 4.89256 14.9123 5.93016 14.9123 7.28906H15.2123ZM20.8182 3.48789C22.2266 3.48789 23.3797 3.80616 24.2878 4.4321L24.458 4.18509C23.4885 3.51675 22.2718 3.18789 20.8182 3.18789V3.48789ZM24.2885 4.43263C24.7249 4.72938 25.0613 5.10098 25.3001 5.54819L25.5648 5.40688C25.3023 4.91529 24.9323 4.5076 24.4572 4.18455L24.2885 4.43263ZM25.3007 5.54919C25.5442 5.99705 25.6653 6.46922 25.6653 6.96777H25.9653C25.9653 6.41815 25.8312 5.89683 25.5642 5.40589L25.3007 5.54919ZM25.6653 6.96777C25.6653 8.30262 25.2178 9.25021 24.3432 9.8447L24.5119 10.0928C25.4877 9.42948 25.9653 8.37642 25.9653 6.96777H25.6653ZM24.3434 9.84461C23.4587 10.4446 22.1357 10.7553 20.3534 10.7553V11.0553C22.1621 11.0553 23.5554 10.7416 24.5118 10.0929L24.3434 9.84461ZM20.3534 10.7553C18.6021 10.7553 17.3152 10.4552 16.4697 9.87738C15.6346 9.30658 15.2123 8.45235 15.2123 7.28906H14.9123C14.9123 8.53659 15.372 9.49046 16.3005 10.1251C17.2187 10.7526 18.5773 11.0553 20.3534 11.0553V10.7553ZM33.1716 8.49902L33.0536 8.40641L33.0528 8.40735L33.1716 8.49902ZM33.1442 5.85352L33.0336 5.95481L33.0351 5.95642L33.1442 5.85352ZM30.7243 5.92871L30.6025 5.8411L30.6023 5.84138L30.7243 5.92871ZM35.8512 4.30859L35.7661 4.4321L35.7669 4.43263L35.8512 4.30859ZM36.9108 5.47754L36.7785 5.5482L36.779 5.54919L36.9108 5.47754ZM35.9059 9.96875L35.9901 10.0929L35.9903 10.0928L35.9059 9.96875ZM31.9411 9.18906C32.5199 9.18906 32.9783 8.99477 33.2903 8.5907L33.0528 8.40735C32.8088 8.72333 32.4469 8.88906 31.9411 8.88906V9.18906ZM33.2896 8.59163C33.5965 8.20053 33.7454 7.71496 33.7454 7.14551H33.4454C33.4454 7.66069 33.3117 8.07747 33.0536 8.40642L33.2896 8.59163ZM33.7454 7.14551C33.7454 6.57445 33.5863 6.10369 33.2534 5.75061L33.0351 5.95642C33.3037 6.24136 33.4454 6.63193 33.4454 7.14551H33.7454ZM33.2549 5.75223C32.9247 5.39161 32.471 5.21816 31.9137 5.21816V5.51816C32.4047 5.51816 32.7713 5.66828 33.0336 5.9548L33.2549 5.75223ZM31.9137 5.21816C31.3491 5.21816 30.9038 5.42238 30.6025 5.8411L30.8461 6.01632C31.0825 5.68764 31.4302 5.51816 31.9137 5.51816V5.21816ZM30.6023 5.84138C30.3179 6.23864 30.1778 6.70517 30.1778 7.23438H30.4778C30.4778 6.76097 30.6021 6.35707 30.8463 6.01604L30.6023 5.84138ZM30.1778 7.23438C30.1778 7.85517 30.3162 8.34878 30.6193 8.68786C30.9253 9.03014 31.3756 9.18906 31.9411 9.18906V8.88906C31.4311 8.88906 31.0747 8.7472 30.843 8.48792C30.6083 8.22544 30.4778 7.8167 30.4778 7.23438H30.1778ZM26.6907 7.28906C26.6907 6.01385 27.1519 5.07587 28.0646 4.44935C28.9874 3.81586 30.3904 3.48789 32.2966 3.48789V3.18789C30.3654 3.18789 28.8906 3.51845 27.8948 4.20202C26.8888 4.89256 26.3907 5.93016 26.3907 7.28906H26.6907ZM32.2966 3.48789C33.7049 3.48789 34.8581 3.80616 35.7661 4.4321L35.9364 4.18509C34.9668 3.51675 33.7502 3.18789 32.2966 3.18789V3.48789ZM35.7669 4.43263C36.2033 4.72938 36.5397 5.10098 36.7785 5.54819L37.0431 5.40688C36.7806 4.91529 36.4107 4.5076 35.9356 4.18455L35.7669 4.43263ZM36.779 5.54919C37.0225 5.99705 37.1436 6.46922 37.1436 6.96777H37.4436C37.4436 6.41815 37.3095 5.89683 37.0426 5.40589L36.779 5.54919ZM37.1436 6.96777C37.1436 8.30262 36.6961 9.25021 35.8216 9.8447L35.9903 10.0928C36.966 9.42948 37.4436 8.37642 37.4436 6.96777H37.1436ZM35.8217 9.84461C34.937 10.4446 33.6141 10.7553 31.8317 10.7553V11.0553C33.6405 11.0553 35.0337 10.7416 35.9901 10.0929L35.8217 9.84461ZM31.8317 10.7553C30.0805 10.7553 28.7935 10.4552 27.9481 9.87738C27.1129 9.30658 26.6907 8.45235 26.6907 7.28906H26.3907C26.3907 8.53659 26.8503 9.49046 27.7788 10.1251C28.6971 10.7526 30.0556 11.0553 31.8317 11.0553V10.7553ZM38.5523 8.36914L38.583 8.22233C38.5035 8.20567 38.4252 8.25534 38.4063 8.33437L38.5523 8.36914ZM43.1734 8.30762L43.1249 8.44965L43.1288 8.45085L43.1734 8.30762ZM41.4986 7.97266L41.4734 8.12053L41.4735 8.12055L41.4986 7.97266ZM39.5708 7.52148L39.6254 7.38174L39.6241 7.38125L39.5708 7.52148ZM38.0943 5.83301L37.9443 5.83197V5.83301H38.0943ZM38.853 4.29492L38.9413 4.41623L38.9417 4.4159L38.853 4.29492ZM46.5571 3.76855L46.705 3.7939C46.7182 3.71666 46.6698 3.64225 46.5938 3.6231L46.5571 3.76855ZM46.229 5.68262L46.1926 5.82814C46.2331 5.83826 46.276 5.83105 46.311 5.80825C46.3459 5.78544 46.3698 5.7491 46.3769 5.70796L46.229 5.68262ZM44.6431 5.4502L44.6275 5.59939L44.6276 5.5994L44.6431 5.4502ZM41.9976 5.77832L41.9468 5.91946L41.9485 5.92007L41.9976 5.77832ZM44.6021 6.18848L44.5718 6.33538L44.5723 6.33549L44.6021 6.18848ZM46.7759 7.2959L46.6536 7.38278L46.6543 7.38372L46.7759 7.2959ZM47.0083 9.30566L47.1496 9.35604L47.1498 9.35559L47.0083 9.30566ZM45.6411 10.502L45.6936 10.6425L45.6941 10.6423L45.6411 10.502ZM39.9536 10.748L39.9724 10.5992L39.9716 10.5991L39.9536 10.748ZM38.1011 10.2627L37.9552 10.2279C37.9395 10.2936 37.9696 10.3616 38.0287 10.3941L38.1011 10.2627ZM38.5215 8.51595C39.962 8.81778 41.1536 8.97031 42.0933 8.97031V8.67031C41.1827 8.67031 40.0136 8.52207 38.583 8.22233L38.5215 8.51595ZM42.0933 8.97031C42.5575 8.97031 42.9134 8.95328 43.156 8.91743C43.2757 8.89973 43.3785 8.87603 43.455 8.84208C43.5194 8.81355 43.631 8.74748 43.631 8.61523H43.331C43.331 8.55134 43.3847 8.54509 43.3335 8.56783C43.2944 8.58515 43.2237 8.60417 43.1121 8.62066C42.8921 8.65317 42.5541 8.67031 42.0933 8.67031V8.97031ZM43.631 8.61523C43.631 8.50365 43.5887 8.40487 43.5101 8.32631C43.4354 8.25156 43.3334 8.2003 43.2179 8.16439L43.1288 8.45085C43.2184 8.47873 43.2702 8.51064 43.298 8.53844C43.322 8.56241 43.331 8.58554 43.331 8.61523H43.631ZM43.2218 8.16564C43.007 8.09243 42.4344 7.97882 41.5236 7.82476L41.4735 8.12055C42.3948 8.27639 42.9387 8.38608 43.125 8.44959L43.2218 8.16564ZM41.5237 7.82478C40.6127 7.66991 39.9835 7.52151 39.6254 7.38175L39.5163 7.66122C39.9055 7.81312 40.5615 7.9655 41.4734 8.12053L41.5237 7.82478ZM39.6241 7.38125C39.146 7.19977 38.801 6.97724 38.5763 6.72035C38.3543 6.46645 38.2443 6.17289 38.2443 5.83301H37.9443C37.9443 6.24507 38.0803 6.60891 38.3505 6.91784C38.618 7.22377 39.0112 7.4695 39.5176 7.66172L39.6241 7.38125ZM38.2443 5.83404C38.2485 5.21718 38.4814 4.75071 38.9413 4.41623L38.7648 4.17361C38.2221 4.5683 37.9491 5.12722 37.9443 5.83197L38.2443 5.83404ZM38.9417 4.4159C39.7728 3.80675 41.1455 3.48789 43.0913 3.48789V3.18789C41.127 3.18789 39.6742 3.50705 38.7644 4.17394L38.9417 4.4159ZM43.0913 3.48789C44.2502 3.48789 45.3931 3.62991 46.5205 3.91401L46.5938 3.6231C45.4425 3.33298 44.2749 3.18789 43.0913 3.18789V3.48789ZM46.4093 3.74321L46.0812 5.65727L46.3769 5.70796L46.705 3.7939L46.4093 3.74321ZM46.2654 5.5371C45.9442 5.45679 45.4061 5.37849 44.6586 5.30099L44.6276 5.5994C45.3748 5.67685 45.8941 5.75349 46.1926 5.82814L46.2654 5.5371ZM44.6586 5.301C43.9121 5.22315 43.2505 5.18398 42.6743 5.18398V5.48398C43.2375 5.48398 43.8884 5.5223 44.6275 5.59939L44.6586 5.301ZM42.6743 5.18398C42.3884 5.18398 42.1601 5.20323 41.9989 5.24743C41.9188 5.26941 41.8429 5.30075 41.7844 5.34888C41.7214 5.40071 41.6767 5.47453 41.6767 5.56641H41.9767C41.9767 5.58081 41.9673 5.58684 41.9749 5.58057C41.9871 5.57059 42.0171 5.55351 42.0783 5.53675C42.1996 5.50347 42.3952 5.48398 42.6743 5.48398V5.18398ZM41.6767 5.56641C41.6767 5.64698 41.7004 5.72392 41.7526 5.78874C41.8032 5.85149 41.8723 5.89266 41.9468 5.91945L42.0484 5.63719C42.0089 5.62297 41.9925 5.60831 41.9862 5.60042C41.9815 5.5946 41.9767 5.5861 41.9767 5.56641H41.6767ZM41.9485 5.92007C42.0222 5.94556 42.163 5.97352 42.3563 6.00498C42.5545 6.03726 42.8207 6.07509 43.154 6.11847L43.1927 5.82098C42.8607 5.77777 42.5982 5.74041 42.4045 5.70888C42.2058 5.67654 42.0915 5.65209 42.0466 5.63657L41.9485 5.92007ZM43.154 6.11847C43.8191 6.20503 44.2906 6.27736 44.5718 6.33538L44.6324 6.04157C44.3394 5.98111 43.8583 5.9076 43.1927 5.82098L43.154 6.11847ZM44.5723 6.33549C45.6401 6.55176 46.3179 6.91028 46.6536 7.38278L46.8982 7.20902C46.4956 6.64245 45.7242 6.26269 44.6318 6.04146L44.5723 6.33549ZM46.6543 7.38372C46.8735 7.68718 46.9814 8.01667 46.9814 8.37598H47.2814C47.2814 7.95143 47.1523 7.56087 46.8975 7.20807L46.6543 7.38372ZM46.9814 8.37598C46.9814 8.75492 46.941 9.04583 46.8669 9.25574L47.1498 9.35559C47.2397 9.10066 47.2814 8.77177 47.2814 8.37598H46.9814ZM46.867 9.25529C46.7001 9.72345 46.2884 10.0974 45.5882 10.3616L45.6941 10.6423C46.443 10.3597 46.9428 9.93606 47.1496 9.35604L46.867 9.25529ZM45.5887 10.3614C44.8945 10.6206 43.8204 10.7553 42.353 10.7553V11.0553C43.8297 11.0553 44.9477 10.921 45.6936 10.6425L45.5887 10.3614ZM42.353 10.7553C41.5897 10.7553 40.7962 10.7033 39.9724 10.5992L39.9348 10.8969C40.77 11.0024 41.5761 11.0553 42.353 11.0553V10.7553ZM39.9716 10.5991C39.1484 10.4996 38.5537 10.3407 38.1734 10.1313L38.0287 10.3941C38.4597 10.6313 39.1 10.7959 39.9356 10.897L39.9716 10.5991ZM38.247 10.2975L38.6982 8.40391L38.4063 8.33437L37.9552 10.2279L38.247 10.2975ZM54.2689 6.37305L54.2681 6.52304C54.3083 6.52327 54.3469 6.50734 54.3752 6.47884C54.4036 6.45034 54.4193 6.41165 54.4189 6.37145L54.2689 6.37305ZM53.9681 5.46387L53.8661 5.57379L53.8674 5.57498L53.9681 5.46387ZM52.225 5.53223L52.3288 5.64044L52.3299 5.63936L52.225 5.53223ZM51.8011 6.35938L51.6531 6.33504C51.646 6.37835 51.6582 6.42261 51.6865 6.45614C51.7148 6.48968 51.7564 6.50913 51.8003 6.50937L51.8011 6.35938ZM56.9486 10.0918L57.0392 10.2113C57.0735 10.1853 57.095 10.1459 57.0982 10.103L56.9486 10.0918ZM55.4379 10.6523L55.4056 10.5058L55.4047 10.506L55.4379 10.6523ZM50.1879 10.4609L50.1367 10.602L50.1379 10.6024L50.1879 10.4609ZM48.9916 9.8252L48.8984 9.94282L48.9003 9.94421L48.9916 9.8252ZM48.1918 8.82031L48.0573 8.8868L48.0576 8.88739L48.1918 8.82031ZM49.0121 4.5752L49.1118 4.68722L49.1119 4.68715L49.0121 4.5752ZM55.4105 3.81641L55.4705 3.67892L55.4691 3.67832L55.4105 3.81641ZM57.017 5.29297L56.882 5.35855L56.8825 5.35939L57.017 5.29297ZM57.2904 6.5166L57.4404 6.52751V6.5166H57.2904ZM57.2084 7.64453L57.2076 7.79453C57.2865 7.79492 57.3522 7.73411 57.358 7.65541L57.2084 7.64453ZM51.6644 7.61719L51.6652 7.46719C51.6185 7.46696 51.5744 7.48845 51.5458 7.52535C51.5172 7.56224 51.5075 7.61032 51.5194 7.65544L51.6644 7.61719ZM52.4574 8.59473L52.3836 8.72531L52.3842 8.72565L52.4574 8.59473ZM56.7093 8.35547V8.20547C56.6895 8.20547 56.67 8.20938 56.6517 8.21699L56.7093 8.35547ZM57.0785 8.35547L57.2281 8.36666C57.2312 8.32505 57.2168 8.28402 57.1884 8.25344C57.16 8.22285 57.1202 8.20547 57.0785 8.20547V8.35547ZM54.4189 6.37145C54.4142 5.92636 54.3104 5.57184 54.0689 5.35276L53.8674 5.57498C54.0177 5.71137 54.1145 5.96296 54.1189 6.37464L54.4189 6.37145ZM54.0702 5.35395C53.8411 5.1412 53.5158 5.04727 53.1205 5.04727V5.34727C53.4725 5.34727 53.7124 5.43107 53.8661 5.57379L54.0702 5.35395ZM53.1205 5.04727C52.7187 5.04727 52.3803 5.16998 52.12 5.42509L52.3299 5.63936C52.5254 5.44786 52.7839 5.34727 53.1205 5.34727V5.04727ZM52.1211 5.42402C51.8682 5.66678 51.7127 5.97266 51.6531 6.33504L51.9491 6.38371C51.999 6.08072 52.126 5.83517 52.3288 5.64043L52.1211 5.42402ZM51.8003 6.50937L54.2681 6.52304L54.2697 6.22305L51.802 6.20938L51.8003 6.50937ZM56.858 9.97226C56.6031 10.1655 56.1272 10.347 55.4056 10.5059L55.4701 10.7988C56.1977 10.6387 56.729 10.4465 57.0392 10.2113L56.858 9.97226ZM55.4047 10.506C54.6901 10.6679 53.9971 10.7484 53.3255 10.7484V11.0484C54.0212 11.0484 54.7364 10.965 55.471 10.7986L55.4047 10.506ZM53.3255 10.7484C52.6507 10.7484 52.0813 10.7167 51.6161 10.6541L51.576 10.9514C52.0587 11.0164 52.6423 11.0484 53.3255 11.0484V10.7484ZM51.6161 10.6541C51.1526 10.5917 50.6932 10.4802 50.2378 10.3195L50.1379 10.6024C50.6122 10.7698 51.0916 10.8862 51.576 10.9514L51.6161 10.6541ZM50.239 10.3199C49.7861 10.1556 49.4014 9.95055 49.0829 9.70618L48.9003 9.94421C49.2471 10.2103 49.6599 10.429 50.1367 10.6019L50.239 10.3199ZM49.0847 9.70759C48.7754 9.46272 48.5221 9.14565 48.3259 8.75323L48.0576 8.88739C48.2715 9.31529 48.5515 9.66814 48.8985 9.9428L49.0847 9.70759ZM48.3262 8.75382C48.1335 8.36416 48.0341 7.89351 48.0341 7.33691H47.7341C47.7341 7.92875 47.8398 8.44703 48.0573 8.8868L48.3262 8.75382ZM48.0341 7.33691C48.0341 6.77663 48.1355 6.26629 48.3362 5.80385L48.061 5.68443C47.8424 6.18814 47.7341 6.73964 47.7341 7.33691H48.0341ZM48.3362 5.80385C48.5387 5.33716 48.7981 4.96656 49.1118 4.68722L48.9123 4.46317C48.5607 4.77628 48.2777 5.18498 48.061 5.68443L48.3362 5.80385ZM49.1119 4.68715C50 3.8953 51.2987 3.48789 53.0316 3.48789V3.18789C51.2554 3.18789 49.8744 3.60535 48.9122 4.46324L49.1119 4.68715ZM53.0316 3.48789C53.8459 3.48789 54.6189 3.64351 55.3519 3.95449L55.4691 3.67832C54.6982 3.35128 53.8853 3.18789 53.0316 3.18789V3.48789ZM55.3505 3.95389C56.0741 4.26962 56.5806 4.73844 56.882 5.35855L57.1519 5.22739C56.8153 4.535 56.2508 4.01944 55.4705 3.67893L55.3505 3.95389ZM56.8825 5.35939C57.0537 5.70616 57.1404 6.09103 57.1404 6.5166H57.4404C57.4404 6.04894 57.3448 5.61806 57.1514 5.22655L56.8825 5.35939ZM57.1408 6.50572L57.0588 7.63365L57.358 7.65541L57.44 6.52748L57.1408 6.50572ZM57.2091 7.49453L51.6652 7.46719L51.6637 7.76719L57.2076 7.79453L57.2091 7.49453ZM51.5194 7.65544C51.6404 8.11426 51.9338 8.47111 52.3836 8.72531L52.5312 8.46414C52.1424 8.24439 51.9072 7.94955 51.8095 7.57893L51.5194 7.65544ZM52.3842 8.72565C52.8388 8.97987 53.4439 9.10019 54.1869 9.10019V8.8002C53.4715 8.8002 52.9236 8.68354 52.5306 8.4638L52.3842 8.72565ZM54.1869 9.10019C54.9422 9.10019 55.8033 8.89512 56.767 8.49395L56.6517 8.21699C55.7105 8.60879 54.8899 8.8002 54.1869 8.8002V9.10019ZM56.7093 8.50547H57.0785V8.20547H56.7093V8.50547ZM56.9289 8.34428L56.799 10.0806L57.0982 10.103L57.2281 8.36666L56.9289 8.34428ZM61.2629 8.27344H61.4129C61.4129 8.19337 61.35 8.12742 61.27 8.12361L61.2629 8.27344ZM61.2629 10.2695L61.4129 10.2773V10.2695H61.2629ZM61.2355 10.7959V10.9459C61.3154 10.9459 61.3812 10.8834 61.3853 10.8037L61.2355 10.7959ZM58.5285 10.7959L58.3787 10.8038C58.3829 10.8835 58.4487 10.9459 58.5285 10.9459V10.7959ZM58.5148 8.25293V8.10293C58.432 8.10293 58.3648 8.17009 58.3648 8.25293H58.5148ZM60.8322 8.25293L60.8394 8.10293H60.8322V8.25293ZM61.1129 8.27344V10.2695H61.4129V8.27344H61.1129ZM61.1131 10.2617L61.0857 10.7881L61.3853 10.8037L61.4127 10.2773L61.1131 10.2617ZM61.2355 10.6459H58.5285V10.9459H61.2355V10.6459ZM58.6783 10.788C58.6694 10.6193 58.6648 10.3063 58.6648 9.8457H58.3648C58.3648 10.3057 58.3694 10.6261 58.3787 10.8038L58.6783 10.788ZM58.6648 9.8457V8.25293H58.3648V9.8457H58.6648ZM58.5148 8.40293H60.8322V8.10293H58.5148V8.40293ZM60.8251 8.40276L61.2558 8.42327L61.27 8.12361L60.8394 8.1031L60.8251 8.40276ZM66.794 0.822266L66.944 0.825358C66.9454 0.753788 66.8961 0.69115 66.8262 0.675769L66.794 0.822266ZM66.7803 1.48535L66.6303 1.48226V1.48535H66.7803ZM66.7188 2.90039L66.569 2.89217L66.569 2.89308L66.7188 2.90039ZM66.6573 4.20605L66.5074 4.2005C66.5053 4.25715 66.5353 4.31015 66.585 4.33747C66.6346 4.3648 66.6954 4.3618 66.7422 4.3297L66.6573 4.20605ZM67.9834 3.57715L67.9387 3.43398L67.9383 3.43409L67.9834 3.57715ZM73.0215 4.71875L73.1316 4.61684L73.1313 4.61656L73.0215 4.71875ZM73.4864 8.54004L73.3545 8.46847L73.354 8.46945L73.4864 8.54004ZM72.461 9.77734L72.5551 9.89411L72.5553 9.89399L72.461 9.77734ZM70.9502 10.5977L70.9005 10.4561L70.9001 10.4563L70.9502 10.5977ZM65.3311 9.35352H65.1811C65.1811 9.38809 65.193 9.4216 65.2149 9.44839L65.3311 9.35352ZM65.3311 9.32617H65.4811C65.4811 9.2526 65.4277 9.18989 65.3551 9.17811C65.2825 9.16632 65.2121 9.20894 65.1888 9.27874L65.3311 9.32617ZM64.962 9.94141L64.8357 9.86046L64.962 9.94141ZM64.5723 10.4951L64.5131 10.357L64.5052 10.361L64.5723 10.4951ZM62.5625 10.6113L62.4127 10.605C62.4107 10.6517 62.4306 10.6966 62.4665 10.7266L62.5625 10.6113ZM62.9248 1.97754L63.0748 1.98383V1.97754H62.9248ZM62.9248 1.06152L62.905 0.912839C62.8305 0.922775 62.7748 0.986343 62.7748 1.06152H62.9248ZM69.3575 5.99707L69.2439 6.09508L69.2453 6.09672L69.3575 5.99707ZM67.2452 5.75781L67.1609 5.63369L67.1609 5.63373L67.2452 5.75781ZM66.644 0.819173L66.6303 1.48226L66.9303 1.48844L66.944 0.825358L66.644 0.819173ZM66.6303 1.48535C66.6303 1.6763 66.6101 2.14337 66.569 2.89217L66.8686 2.90861C66.9095 2.16262 66.9303 1.68633 66.9303 1.48535H66.6303ZM66.569 2.89308C66.5325 3.63992 66.512 4.07633 66.5074 4.2005L66.8072 4.21161C66.8117 4.08968 66.8321 3.65565 66.8686 2.9077L66.569 2.89308ZM66.7422 4.3297C67.1065 4.07953 67.5347 3.87593 68.0285 3.72021L67.9383 3.43409C67.4205 3.59738 66.9646 3.81305 66.5723 4.08241L66.7422 4.3297ZM68.0282 3.72032C68.5254 3.56495 69.0116 3.48789 69.4873 3.48789V3.18789C68.9787 3.18789 68.4623 3.27034 67.9387 3.43398L68.0282 3.72032ZM69.4873 3.48789C70.9537 3.48789 72.0887 3.93668 72.9117 4.82094L73.1313 4.61656C72.2408 3.65967 71.0197 3.18789 69.4873 3.18789V3.48789ZM72.9115 4.82066C73.4524 5.40492 73.726 6.14184 73.726 7.04297H74.026C74.026 6.07561 73.7299 5.26305 73.1316 4.61684L72.9115 4.82066ZM73.726 7.04297C73.726 7.53629 73.603 8.01084 73.3545 8.46848L73.6182 8.6116C73.8893 8.11221 74.026 7.58871 74.026 7.04297H73.726ZM73.354 8.46945C73.1084 8.92993 72.7797 9.32679 72.3667 9.6607L72.5553 9.89399C72.9991 9.53519 73.3539 9.10718 73.6187 8.61063L73.354 8.46945ZM72.3668 9.66058C71.9579 9.99032 71.4699 10.256 70.9005 10.4561L71 10.7392C71.5973 10.5292 72.1163 10.248 72.5551 9.89411L72.3668 9.66058ZM70.9001 10.4563C70.3396 10.6549 69.7165 10.7553 69.0293 10.7553V11.0553C69.7458 11.0553 70.4033 10.9506 71.0003 10.739L70.9001 10.4563ZM69.0293 10.7553C68.3472 10.7553 67.6755 10.6247 67.0133 10.3625L66.9028 10.6414C67.5987 10.917 68.3078 11.0553 69.0293 11.0553V10.7553ZM67.0133 10.3625C66.3547 10.1017 65.8346 9.73295 65.4473 9.25865L65.2149 9.44839C65.6388 9.96757 66.2033 10.3644 66.9028 10.6414L67.0133 10.3625ZM65.4811 9.35352V9.32617H65.1811V9.35352H65.4811ZM65.1888 9.27874C65.1889 9.27827 65.184 9.29066 65.166 9.32372C65.1498 9.35356 65.1268 9.39341 65.0965 9.44382C65.0361 9.54449 64.9493 9.68318 64.8357 9.86046L65.0882 10.0224C65.2025 9.84416 65.2911 9.70259 65.3538 9.59817C65.385 9.54604 65.4104 9.50215 65.4295 9.46705C65.4469 9.43517 65.4641 9.40141 65.4734 9.37361L65.1888 9.27874ZM64.8357 9.86046C64.7221 10.0376 64.634 10.1705 64.571 10.2601C64.5393 10.3052 64.5153 10.3373 64.4984 10.358C64.4898 10.3685 64.4848 10.3739 64.4828 10.3759C64.4762 10.3825 64.4883 10.3679 64.5132 10.3572L64.6314 10.633C64.6643 10.6189 64.6874 10.5956 64.6949 10.588C64.707 10.576 64.7192 10.5619 64.7308 10.5477C64.7544 10.5188 64.7831 10.48 64.8163 10.4328C64.8831 10.3378 64.974 10.2006 65.0882 10.0224L64.8357 9.86046ZM64.5052 10.361C64.518 10.3546 64.5261 10.3534 64.5138 10.3566C64.5065 10.3585 64.4951 10.3612 64.4787 10.3646C64.4461 10.3716 64.3991 10.3807 64.337 10.392C64.213 10.4145 64.0329 10.4451 63.7962 10.4838L63.8445 10.7799C64.0818 10.7411 64.264 10.7102 64.3906 10.6871C64.4538 10.6756 64.5042 10.6659 64.5412 10.6581C64.5595 10.6541 64.5759 10.6504 64.5894 10.6469C64.5979 10.6447 64.6198 10.6391 64.6394 10.6293L64.5052 10.361ZM63.7962 10.4838C63.3182 10.5619 63.0308 10.598 62.918 10.598V10.898C63.0604 10.898 63.3746 10.8567 63.8445 10.7799L63.7962 10.4838ZM62.918 10.598C62.8296 10.598 62.7443 10.5675 62.6586 10.4961L62.4665 10.7266C62.5995 10.8374 62.7512 10.898 62.918 10.898V10.598ZM62.7124 10.6176L63.0747 1.98383L62.775 1.97125L62.4127 10.605L62.7124 10.6176ZM63.0748 1.97754V1.06152H62.7748V1.97754H63.0748ZM62.9447 1.21021C64.5208 1.00006 65.4892 0.89707 65.8643 0.89707V0.59707C65.4647 0.59707 64.4734 0.703719 62.905 0.912839L62.9447 1.21021ZM65.8643 0.89707C66.2516 0.89707 66.5492 0.922001 66.7618 0.968762L66.8262 0.675769C66.583 0.62227 66.2608 0.59707 65.8643 0.59707V0.89707ZM68.1202 9.06602C68.6726 9.06602 69.1241 8.87824 69.457 8.49484L69.2305 8.29813C68.9619 8.60744 68.5976 8.76602 68.1202 8.76602V9.06602ZM69.457 8.49484C69.7816 8.12109 69.945 7.68281 69.945 7.18652H69.645C69.645 7.6108 69.5075 7.97917 69.2305 8.29813L69.457 8.49484ZM69.945 7.18652C69.945 6.6873 69.7872 6.25471 69.4696 5.89742L69.2453 6.09672C69.5111 6.39568 69.645 6.75606 69.645 7.18652H69.945ZM69.471 5.89907C69.1502 5.52727 68.7019 5.34805 68.1475 5.34805V5.64805C68.6322 5.64805 68.9905 5.80151 69.2439 6.09507L69.471 5.89907ZM68.1475 5.34805C67.7749 5.34805 67.444 5.44162 67.1609 5.63369L67.3294 5.88193C67.5567 5.72765 67.8273 5.64805 68.1475 5.64805V5.34805ZM67.1609 5.63373C66.6321 5.99292 66.3705 6.52746 66.3705 7.21387H66.6705C66.6705 6.61512 66.8921 6.17896 67.3294 5.8819L67.1609 5.63373ZM66.3705 7.21387C66.3705 7.70697 66.5204 8.13996 66.8218 8.50557L67.0533 8.31474C66.7987 8.00587 66.6705 7.64134 66.6705 7.21387H66.3705ZM66.8218 8.50557C67.1332 8.88336 67.5733 9.06602 68.1202 9.06602V8.76602C67.6462 8.76602 67.2979 8.61143 67.0533 8.31474L66.8218 8.50557ZM77.6913 11.6367L77.8317 11.6894C77.8472 11.6482 77.8438 11.6023 77.8224 11.5638L77.6913 11.6367ZM75.1688 6.83105L75.0347 6.89827L75.1688 6.83105ZM73.6307 3.81641L73.6243 3.66654C73.5715 3.66881 73.5237 3.69873 73.4987 3.74531C73.4736 3.79189 73.4749 3.84822 73.5021 3.89358L73.6307 3.81641ZM77.6229 3.64551L77.7607 3.58606C77.736 3.52895 77.6787 3.49298 77.6165 3.49565L77.6229 3.64551ZM79.5438 8.0957L79.4061 8.15515C79.4304 8.21138 79.4864 8.24721 79.5476 8.24566C79.6089 8.2441 79.663 8.20547 79.6844 8.14807L79.5438 8.0957ZM80.2616 5.92871L80.119 5.88208L80.1189 5.88257L80.2616 5.92871ZM81.0409 3.65234L81.0284 3.50286C80.972 3.50757 80.923 3.54371 80.9018 3.59628L81.0409 3.65234ZM81.4989 3.63184L81.5046 3.48184H81.4989V3.63184ZM84.5819 3.74805L84.7204 3.80574C84.7393 3.76037 84.7348 3.70861 84.7083 3.66721C84.6818 3.6258 84.6367 3.6 84.5876 3.59815L84.5819 3.74805ZM82.538 8.50586L82.6754 8.56595L82.6754 8.56592L82.538 8.50586ZM81.0067 11.9375L80.8735 11.8685L80.8733 11.869L81.0067 11.9375ZM79.8241 13.6465L79.7149 13.5436L79.7147 13.5439L79.8241 13.6465ZM75.8388 15.1914L75.7111 15.2703C75.7385 15.3145 75.7868 15.3414 75.8388 15.3414V15.1914ZM74.6561 13.2773V13.1273C74.6017 13.1273 74.5516 13.1568 74.5251 13.2043C74.4986 13.2518 74.4999 13.3099 74.5285 13.3562L74.6561 13.2773ZM75.8729 12.9629L75.9274 13.1026L75.9282 13.1023L75.8729 12.9629ZM77.8224 11.5638L77.2482 10.5316L76.986 10.6774L77.5602 11.7096L77.8224 11.5638ZM77.2482 10.5316C76.8671 9.8466 76.219 8.59148 75.3029 6.76384L75.0347 6.89827C75.9507 8.72558 76.6014 9.98608 76.986 10.6774L77.2482 10.5316ZM75.3029 6.76384C74.3891 4.94071 73.8726 3.92791 73.7594 3.73923L73.5021 3.89358C73.6077 4.06949 74.1165 5.06645 75.0347 6.89827L75.3029 6.76384ZM73.6372 3.96627L77.6293 3.79537L77.6165 3.49565L73.6243 3.66654L73.6372 3.96627ZM77.4852 3.70495L79.4061 8.15515L79.6815 8.03626L77.7607 3.58606L77.4852 3.70495ZM79.6844 8.14807C79.7724 7.91175 80.0129 7.18542 80.4043 5.97486L80.1189 5.88257C79.7264 7.09648 79.4884 7.81481 79.4033 8.04334L79.6844 8.14807ZM80.4042 5.97534C80.8012 4.76142 81.0593 4.00806 81.18 3.70841L80.9018 3.59628C80.7764 3.90731 80.515 4.67152 80.119 5.88208L80.4042 5.97534ZM81.0534 3.80183C81.2139 3.78844 81.3624 3.78184 81.4989 3.78184V3.48184C81.3529 3.48184 81.196 3.4889 81.0284 3.50286L81.0534 3.80183ZM81.4989 3.63184C81.4933 3.78173 81.4933 3.78173 81.4933 3.78173C81.4933 3.78173 81.4933 3.78173 81.4933 3.78173C81.4933 3.78173 81.4933 3.78173 81.4934 3.78173C81.4934 3.78173 81.4934 3.78174 81.4934 3.78174C81.4936 3.78174 81.4935 3.78174 81.4937 3.78175C81.4937 3.78175 81.4938 3.78175 81.4938 3.78175C81.4939 3.78175 81.4939 3.78176 81.494 3.78176C81.4941 3.78176 81.4941 3.78176 81.4942 3.78177C81.4943 3.78177 81.4944 3.78177 81.4944 3.78177C81.4945 3.78178 81.4946 3.78178 81.4947 3.78178C81.4948 3.78179 81.4949 3.78179 81.4949 3.78179C81.4951 3.7818 81.4954 3.78181 81.4956 3.78182C81.4957 3.78182 81.4958 3.78182 81.4959 3.78183C81.496 3.78183 81.4961 3.78184 81.4963 3.78184C81.4967 3.78186 81.4992 3.78195 81.5 3.78198C81.503 3.78209 81.5019 3.78205 81.5053 3.78218C81.5122 3.78244 81.5115 3.78242 81.5204 3.78275C81.5243 3.7829 81.5257 3.78295 81.5301 3.78312C81.5345 3.78328 81.5312 3.78316 81.5356 3.78333C81.5382 3.78343 81.5387 3.78344 81.5414 3.78355C81.547 3.78376 81.5481 3.7838 81.5542 3.78403C81.5551 3.78406 81.5602 3.78425 81.5612 3.78429C81.5618 3.78431 81.5624 3.78434 81.563 3.78436C81.5636 3.78438 81.5642 3.7844 81.5648 3.78443C81.5679 3.78454 81.5654 3.78445 81.5685 3.78457C81.5742 3.78478 81.5705 3.78464 81.5762 3.78486C81.5789 3.78496 81.5776 3.78491 81.5802 3.78501C81.5809 3.78503 81.5816 3.78506 81.5823 3.78508C81.583 3.78511 81.5836 3.78514 81.5843 3.78516C81.5974 3.78566 81.5881 3.7853 81.6016 3.78582C81.6032 3.78587 81.6047 3.78593 81.6062 3.78599C81.607 3.78602 81.6077 3.78605 81.6085 3.78607C81.6093 3.7861 81.6101 3.78613 81.6109 3.78616C81.6134 3.78626 81.613 3.78624 81.6156 3.78634C81.6162 3.78636 81.6199 3.7865 81.6205 3.78652C81.631 3.78692 81.6198 3.7865 81.6304 3.7869C81.6336 3.78702 81.6375 3.78717 81.6408 3.78729C81.6586 3.78796 81.6443 3.78742 81.6626 3.78811C81.6655 3.78822 81.6711 3.78843 81.6741 3.78855C81.6753 3.78859 81.6787 3.78872 81.68 3.78877C81.6827 3.78887 81.6832 3.78889 81.6859 3.78899C81.6915 3.7892 81.6925 3.78924 81.6982 3.78945C81.7007 3.78955 81.7082 3.78983 81.7108 3.78993C81.7135 3.79003 81.7145 3.79007 81.7172 3.79017C81.7188 3.79023 81.7222 3.79036 81.7238 3.79042C81.7306 3.79068 81.7302 3.79066 81.7371 3.79092C81.7391 3.791 81.7488 3.79136 81.7509 3.79144C81.7546 3.79158 81.7541 3.79156 81.7579 3.7917C81.7588 3.79174 81.764 3.79194 81.765 3.79197C81.7747 3.79234 81.7696 3.79215 81.7795 3.79252C81.7804 3.79255 81.7859 3.79276 81.7869 3.7928C81.7881 3.79284 81.7893 3.79289 81.7906 3.79294C81.7918 3.79298 81.7931 3.79303 81.7943 3.79308C81.7992 3.79326 81.7971 3.79318 81.8019 3.79336C81.8025 3.79339 81.809 3.79363 81.8096 3.79365C81.8209 3.79408 81.8137 3.79381 81.8252 3.79424C81.8265 3.79429 81.8278 3.79434 81.8292 3.79439C81.8305 3.79444 81.8318 3.79449 81.8331 3.79454C81.8345 3.79459 81.8358 3.79464 81.8372 3.79469C81.8385 3.79474 81.8398 3.79479 81.8412 3.79484C81.8477 3.79509 81.8428 3.7949 81.8493 3.79515C81.8507 3.7952 81.8521 3.79525 81.8534 3.79531C81.8548 3.79536 81.8562 3.79541 81.8576 3.79546C81.8706 3.79595 81.8611 3.7956 81.8743 3.79609C81.8757 3.79615 81.8771 3.7962 81.8786 3.79625C81.88 3.79631 81.8814 3.79636 81.8828 3.79641C81.8842 3.79647 81.8857 3.79652 81.8871 3.79658C81.8885 3.79663 81.89 3.79668 81.8914 3.79674C81.8989 3.79702 81.8927 3.79678 81.9001 3.79707C81.9016 3.79712 81.9031 3.79718 81.9045 3.79723C81.906 3.79729 81.9075 3.79734 81.9089 3.7974C81.9229 3.79792 81.9127 3.79754 81.9268 3.79807C81.9283 3.79813 81.9298 3.79819 81.9313 3.79824C81.9328 3.7983 81.9344 3.79836 81.9359 3.79841C81.9374 3.79847 81.9389 3.79853 81.9405 3.79859C81.942 3.79864 81.9435 3.7987 81.9451 3.79876C81.9535 3.79908 81.9459 3.79879 81.9543 3.79911C81.9559 3.79917 81.9574 3.79923 81.959 3.79928C81.9606 3.79934 81.9621 3.7994 81.9637 3.79946C81.9796 3.80006 81.9667 3.79957 81.9827 3.80018C81.9843 3.80024 81.9859 3.8003 81.9875 3.80036C81.9891 3.80042 81.9907 3.80048 81.9923 3.80054C81.9939 3.8006 81.9956 3.80066 81.9972 3.80072C81.9988 3.80079 82.0004 3.80085 82.0021 3.80091C82.0126 3.80131 82.0014 3.80088 82.0119 3.80128C82.0166 3.80146 82.0171 3.80148 82.0218 3.80165C82.0387 3.80229 82.025 3.80177 82.042 3.80241C82.0451 3.80253 82.049 3.80268 82.0522 3.8028C82.0539 3.80286 82.0556 3.80293 82.0573 3.80299C82.059 3.80306 82.0608 3.80312 82.0625 3.80319C82.0742 3.80363 82.0611 3.80314 82.0729 3.80358C82.0761 3.8037 82.0801 3.80385 82.0834 3.80397C82.1012 3.80464 82.0867 3.8041 82.1046 3.80477C82.108 3.8049 82.112 3.80505 82.1154 3.80518C82.1172 3.80525 82.119 3.80532 82.1208 3.80539C82.1226 3.80545 82.1245 3.80552 82.1263 3.80559C82.1307 3.80576 82.1327 3.80583 82.1372 3.806C82.1401 3.80611 82.1454 3.80631 82.1483 3.80642C82.1501 3.80649 82.152 3.80656 82.1538 3.80663C82.1557 3.8067 82.1576 3.80677 82.1594 3.80684C82.1646 3.80704 82.1655 3.80707 82.1707 3.80726C82.1736 3.80737 82.1791 3.80758 82.182 3.80769C82.1839 3.80776 82.1858 3.80783 82.1877 3.80791C82.1896 3.80798 82.1915 3.80805 82.1934 3.80812C82.1988 3.80832 82.1996 3.80835 82.205 3.80856C82.2079 3.80867 82.2136 3.80888 82.2166 3.80899C82.2185 3.80907 82.2205 3.80914 82.2224 3.80922C82.2244 3.80929 82.2263 3.80936 82.2283 3.80944C82.2338 3.80964 82.2346 3.80967 82.2401 3.80988C82.2432 3.81 82.2489 3.81021 82.252 3.81033C82.254 3.81041 82.256 3.81048 82.258 3.81056C82.26 3.81063 82.262 3.81071 82.264 3.81078C82.2696 3.81099 82.2705 3.81103 82.2761 3.81124C82.2785 3.81133 82.2858 3.8116 82.2883 3.8117C82.2903 3.81177 82.2924 3.81185 82.2944 3.81193C82.2965 3.81201 82.2985 3.81208 82.3006 3.81216C82.3069 3.8124 82.3065 3.81238 82.3129 3.81263C82.3154 3.81272 82.3229 3.813 82.3254 3.8131C82.3275 3.81317 82.3296 3.81325 82.3317 3.81333C82.3338 3.81341 82.3359 3.81349 82.338 3.81357C82.3445 3.81382 82.3441 3.8138 82.3506 3.81405C82.3532 3.81414 82.3608 3.81443 82.3634 3.81453C82.3655 3.81461 82.3676 3.81469 82.3698 3.81477C82.3719 3.81485 82.3741 3.81493 82.3762 3.81501C82.3829 3.81526 82.3824 3.81525 82.3891 3.8155C82.3918 3.8156 82.3995 3.81589 82.4022 3.81599C82.4044 3.81607 82.4065 3.81615 82.4087 3.81624C82.4109 3.81632 82.4131 3.8164 82.4153 3.81648C82.4221 3.81674 82.4217 3.81672 82.4285 3.81698C82.4305 3.81706 82.4398 3.81741 82.4418 3.81748C82.4441 3.81757 82.4463 3.81765 82.4485 3.81774C82.4508 3.81782 82.453 3.81791 82.4552 3.81799C82.4629 3.81828 82.461 3.81821 82.4687 3.8185C82.4707 3.81857 82.4803 3.81894 82.4823 3.81901C82.4846 3.8191 82.4869 3.81918 82.4892 3.81927C82.4915 3.81936 82.4937 3.81944 82.496 3.81953C82.5054 3.81988 82.5004 3.81969 82.5098 3.82005C82.5118 3.82012 82.5216 3.82049 82.5237 3.82057C82.526 3.82066 82.5283 3.82075 82.5307 3.82083C82.533 3.82092 82.5353 3.82101 82.5377 3.8211C82.5472 3.82146 82.5421 3.82127 82.5517 3.82163C82.5523 3.82165 82.5653 3.82214 82.5659 3.82216C82.5683 3.82225 82.5706 3.82234 82.573 3.82243C82.5754 3.82252 82.5778 3.82261 82.5801 3.8227C82.5899 3.82307 82.5847 3.82287 82.5945 3.82324C82.595 3.82326 82.6084 3.82376 82.6089 3.82378C82.6113 3.82387 82.6138 3.82397 82.6162 3.82406C82.6186 3.82415 82.621 3.82424 82.6235 3.82433C82.6334 3.82471 82.6281 3.82451 82.6381 3.82488C82.6405 3.82498 82.643 3.82507 82.6454 3.82516C82.6479 3.82525 82.6504 3.82535 82.6528 3.82544C82.6553 3.82553 82.6577 3.82562 82.6602 3.82572C82.6627 3.82581 82.6652 3.8259 82.6676 3.826C82.6786 3.82641 82.6716 3.82615 82.6825 3.82656C82.685 3.82665 82.6875 3.82675 82.69 3.82684C82.6925 3.82694 82.6951 3.82703 82.6976 3.82712C82.7001 3.82722 82.7026 3.82731 82.7051 3.82741C82.7076 3.8275 82.7101 3.8276 82.7127 3.82769C82.7238 3.82811 82.7167 3.82785 82.7279 3.82827C82.7304 3.82836 82.7329 3.82846 82.7355 3.82855C82.738 3.82865 82.7406 3.82875 82.7431 3.82884C82.7457 3.82894 82.7483 3.82904 82.7508 3.82913C82.7534 3.82923 82.756 3.82933 82.7585 3.82942C82.7699 3.82985 82.7626 3.82958 82.774 3.83001C82.7766 3.8301 82.7792 3.8302 82.7818 3.8303C82.7844 3.8304 82.787 3.83049 82.7896 3.83059C82.7922 3.83069 82.7948 3.83079 82.7974 3.83089C82.8 3.83099 82.8026 3.83108 82.8052 3.83118C82.8168 3.83162 82.8094 3.83134 82.821 3.83178C82.8236 3.83188 82.8263 3.83198 82.8289 3.83208C82.8316 3.83218 82.8342 3.83227 82.8369 3.83238C82.8395 3.83247 82.8422 3.83257 82.8448 3.83267C82.8475 3.83278 82.8501 3.83288 82.8528 3.83298C82.8646 3.83342 82.857 3.83314 82.8688 3.83358C82.8715 3.83368 82.8742 3.83378 82.8769 3.83388C82.8796 3.83399 82.8823 3.83409 82.885 3.83419C82.8877 3.83429 82.8904 3.83439 82.8931 3.83449C82.8958 3.8346 82.8985 3.8347 82.9012 3.8348C82.9132 3.83525 82.9055 3.83496 82.9175 3.83542C82.9203 3.83552 82.923 3.83562 82.9257 3.83572C82.9285 3.83583 82.9312 3.83593 82.934 3.83603C82.9367 3.83614 82.9394 3.83624 82.9422 3.83635C82.9449 3.83645 82.9477 3.83655 82.9505 3.83666C82.9635 3.83715 82.954 3.83679 82.9671 3.83728C82.9698 3.83739 82.9726 3.83749 82.9754 3.8376C82.9782 3.8377 82.981 3.83781 82.9838 3.83791C82.9866 3.83802 82.9894 3.83812 82.9922 3.83823C82.9949 3.83833 82.9978 3.83844 83.0006 3.83855C83.0139 3.83905 83.0041 3.83868 83.0174 3.83918C83.0203 3.83929 83.0231 3.8394 83.0259 3.8395C83.0288 3.83961 83.0316 3.83972 83.0344 3.83982C83.0373 3.83993 83.0401 3.84004 83.043 3.84014C83.0458 3.84025 83.0487 3.84036 83.0515 3.84047C83.065 3.84098 83.0551 3.8406 83.0687 3.84111C83.0715 3.84122 83.0744 3.84133 83.0773 3.84144C83.0802 3.84155 83.0831 3.84166 83.0859 3.84176C83.0888 3.84187 83.0917 3.84198 83.0946 3.84209C83.0975 3.8422 83.1004 3.84231 83.1033 3.84242C83.1171 3.84294 83.107 3.84256 83.1208 3.84308C83.1237 3.84319 83.1266 3.8433 83.1295 3.84341C83.1324 3.84352 83.1354 3.84363 83.1383 3.84374C83.1412 3.84385 83.1442 3.84396 83.1471 3.84407C83.1501 3.84418 83.153 3.84429 83.1559 3.8444C83.1699 3.84493 83.1597 3.84454 83.1737 3.84507C83.1766 3.84518 83.1796 3.84529 83.1826 3.84541C83.1856 3.84552 83.1885 3.84563 83.1915 3.84574C83.1945 3.84586 83.1975 3.84597 83.2005 3.84608C83.2034 3.84619 83.2064 3.84631 83.2094 3.84642C83.2236 3.84695 83.2132 3.84656 83.2274 3.8471C83.2305 3.84721 83.2335 3.84733 83.2365 3.84744C83.2395 3.84755 83.2425 3.84767 83.2456 3.84778C83.2486 3.8479 83.2516 3.84801 83.2547 3.84812C83.2577 3.84824 83.2607 3.84835 83.2638 3.84847C83.2782 3.84901 83.2676 3.84861 83.2821 3.84916C83.2851 3.84927 83.2882 3.84939 83.2913 3.8495C83.2943 3.84962 83.2974 3.84973 83.3005 3.84985C83.3035 3.84997 83.3066 3.85008 83.3097 3.8502C83.3128 3.85031 83.3159 3.85043 83.3189 3.85055C83.3346 3.85114 83.3219 3.85066 83.3375 3.85125C83.3406 3.85136 83.3437 3.85148 83.3469 3.8516C83.35 3.85172 83.3531 3.85183 83.3562 3.85195C83.3593 3.85207 83.3624 3.85219 83.3656 3.8523C83.3687 3.85242 83.3718 3.85254 83.375 3.85266C83.3909 3.85326 83.3779 3.85277 83.3938 3.85337C83.397 3.85349 83.4001 3.85361 83.4033 3.85373C83.4065 3.85385 83.4096 3.85397 83.4128 3.85408C83.416 3.8542 83.4191 3.85432 83.4223 3.85444C83.4255 3.85456 83.4287 3.85468 83.4319 3.8548C83.448 3.85541 83.4348 3.85492 83.451 3.85552C83.4542 3.85565 83.4574 3.85577 83.4606 3.85589C83.4638 3.85601 83.467 3.85613 83.4702 3.85625C83.4735 3.85637 83.4767 3.85649 83.4799 3.85661C83.4831 3.85674 83.4863 3.85686 83.4896 3.85698C83.5059 3.8576 83.4926 3.85709 83.509 3.85771C83.5122 3.85783 83.5155 3.85796 83.5188 3.85808C83.522 3.8582 83.5253 3.85832 83.5285 3.85845C83.5318 3.85857 83.535 3.85869 83.5383 3.85882C83.5416 3.85894 83.5449 3.85906 83.5481 3.85919C83.5647 3.85981 83.5512 3.8593 83.5679 3.85993C83.5711 3.86005 83.5744 3.86018 83.5777 3.8603C83.581 3.86043 83.5844 3.86055 83.5877 3.86068C83.591 3.8608 83.5943 3.86093 83.5976 3.86105C83.6009 3.86118 83.6042 3.8613 83.6076 3.86143C83.6244 3.86206 83.6107 3.86154 83.6275 3.86218C83.6309 3.86231 83.6342 3.86243 83.6376 3.86256C83.6409 3.86268 83.6443 3.86281 83.6476 3.86294C83.651 3.86306 83.6544 3.86319 83.6577 3.86332C83.6611 3.86344 83.6645 3.86357 83.6678 3.8637C83.6849 3.86434 83.671 3.86382 83.6881 3.86446C83.6915 3.86459 83.6949 3.86472 83.6983 3.86485C83.7017 3.86497 83.7051 3.8651 83.7085 3.86523C83.7119 3.86536 83.7153 3.86549 83.7187 3.86561C83.7221 3.86574 83.7255 3.86587 83.7289 3.866C83.7462 3.86665 83.7321 3.86612 83.7495 3.86678C83.7529 3.86691 83.7564 3.86703 83.7598 3.86716C83.7632 3.86729 83.7667 3.86742 83.7701 3.86755C83.7736 3.86768 83.777 3.86781 83.7805 3.86794C83.784 3.86807 83.7874 3.86821 83.7909 3.86834C83.8084 3.869 83.7941 3.86846 83.8117 3.86912C83.8152 3.86925 83.8187 3.86938 83.8222 3.86952C83.8257 3.86965 83.8292 3.86978 83.8327 3.86991C83.8362 3.87004 83.8397 3.87017 83.8432 3.87031C83.8467 3.87044 83.8502 3.87057 83.8537 3.8707C83.8715 3.87137 83.857 3.87083 83.8748 3.8715C83.8783 3.87163 83.8819 3.87177 83.8854 3.8719C83.8889 3.87203 83.8925 3.87217 83.896 3.8723C83.8996 3.87243 83.9031 3.87257 83.9067 3.8727C83.9102 3.87283 83.9138 3.87297 83.9173 3.8731C83.9354 3.87378 83.9207 3.87323 83.9387 3.87391C83.9423 3.87404 83.9459 3.87418 83.9495 3.87431C83.9531 3.87445 83.9566 3.87458 83.9602 3.87472C83.9638 3.87486 83.9674 3.87499 83.971 3.87513C83.9746 3.87526 83.9782 3.8754 83.9818 3.87553C83.9854 3.87567 83.9891 3.87581 83.9927 3.87594C83.9963 3.87608 83.9999 3.87621 84.0035 3.87635C84.0071 3.87649 84.0108 3.87662 84.0144 3.87676C84.018 3.8769 84.0217 3.87704 84.0253 3.87717C84.0289 3.87731 84.0326 3.87745 84.0362 3.87758C84.0399 3.87772 84.0435 3.87786 84.0472 3.878C84.0508 3.87813 84.0545 3.87827 84.0581 3.87841C84.0618 3.87855 84.0655 3.87869 84.0691 3.87882C84.0728 3.87896 84.0765 3.8791 84.0802 3.87924C84.0838 3.87938 84.0875 3.87952 84.0912 3.87966C84.0949 3.8798 84.0986 3.87993 84.1023 3.88007C84.106 3.88021 84.1097 3.88035 84.1134 3.88049C84.1171 3.88063 84.1208 3.88077 84.1245 3.88091C84.1282 3.88105 84.1319 3.88119 84.1356 3.88133C84.1393 3.88147 84.1431 3.88161 84.1468 3.88175C84.1505 3.88189 84.1542 3.88203 84.158 3.88217C84.1617 3.88231 84.1654 3.88245 84.1692 3.8826C84.1729 3.88274 84.1767 3.88288 84.1804 3.88302C84.1842 3.88316 84.1879 3.8833 84.1917 3.88344C84.1954 3.88358 84.1992 3.88373 84.2029 3.88387C84.2067 3.88401 84.2105 3.88415 84.2142 3.88429C84.218 3.88444 84.2218 3.88458 84.2256 3.88472C84.2293 3.88486 84.2331 3.88501 84.2369 3.88515C84.2407 3.88529 84.2445 3.88543 84.2483 3.88558C84.2521 3.88572 84.2559 3.88586 84.2597 3.88601C84.2635 3.88615 84.2673 3.88629 84.2711 3.88644C84.2749 3.88658 84.2787 3.88672 84.2825 3.88687C84.2864 3.88701 84.2902 3.88716 84.294 3.8873C84.2978 3.88745 84.3017 3.88759 84.3055 3.88773C84.3093 3.88788 84.3132 3.88802 84.317 3.88817C84.3209 3.88831 84.3247 3.88846 84.3286 3.8886C84.3324 3.88875 84.3363 3.88889 84.3401 3.88904C84.344 3.88918 84.3478 3.88933 84.3517 3.88948C84.3556 3.88962 84.3594 3.88977 84.3633 3.88991C84.3672 3.89006 84.3711 3.8902 84.3749 3.89035C84.3788 3.8905 84.3827 3.89064 84.3866 3.89079C84.3905 3.89094 84.3944 3.89108 84.3983 3.89123C84.4022 3.89138 84.4061 3.89152 84.41 3.89167C84.4139 3.89182 84.4178 3.89197 84.4217 3.89211C84.4256 3.89226 84.4295 3.89241 84.4334 3.89256C84.4374 3.8927 84.4413 3.89285 84.4452 3.893C84.4491 3.89315 84.4531 3.8933 84.457 3.89345C84.4609 3.89359 84.4649 3.89374 84.4688 3.89389C84.4728 3.89404 84.4767 3.89419 84.4807 3.89434C84.4846 3.89449 84.4886 3.89464 84.4925 3.89478C84.4965 3.89493 84.5005 3.89508 84.5044 3.89523C84.5084 3.89538 84.5124 3.89553 84.5163 3.89568C84.5203 3.89583 84.5243 3.89598 84.5283 3.89613C84.5323 3.89628 84.5363 3.89643 84.5402 3.89658C84.5442 3.89673 84.5482 3.89688 84.5522 3.89703C84.5562 3.89718 84.5602 3.89734 84.5642 3.89749C84.5682 3.89764 84.5723 3.89779 84.5763 3.89794L84.5876 3.59815C84.5807 3.59789 84.5704 3.59751 84.5635 3.59725C84.5595 3.5971 84.5555 3.59695 84.5515 3.5968C84.5476 3.59664 84.5436 3.59649 84.5396 3.59634C84.5181 3.59554 84.5133 3.59536 84.492 3.59455C84.4791 3.59406 84.4575 3.59325 84.4447 3.59277C84.4406 3.59261 84.4254 3.59204 84.4213 3.59189C84.4174 3.59174 84.4135 3.59159 84.4096 3.59144C84.4057 3.5913 84.4018 3.59115 84.3979 3.591C84.3769 3.59021 84.3723 3.59004 84.3514 3.58925C84.3388 3.58878 84.3178 3.58798 84.3053 3.58751C84.3012 3.58736 84.2864 3.5868 84.2824 3.58665C84.2786 3.58651 84.2748 3.58636 84.271 3.58622C84.2672 3.58608 84.2634 3.58593 84.2596 3.58579C84.2391 3.58502 84.2346 3.58485 84.2142 3.58408C84.2019 3.58362 84.1814 3.58284 84.1693 3.58239C84.1653 3.58224 84.1509 3.58169 84.1469 3.58154C84.1432 3.5814 84.1395 3.58126 84.1358 3.58112C84.1321 3.58098 84.1284 3.58084 84.1247 3.5807C84.1047 3.57995 84.1003 3.57979 84.0804 3.57904C84.0685 3.57859 84.0485 3.57783 84.0366 3.57738C84.0327 3.57724 84.0187 3.57671 84.0148 3.57656C84.0112 3.57643 84.0076 3.57629 84.004 3.57616C84.0004 3.57602 83.9967 3.57588 83.9931 3.57575C83.9737 3.57501 83.9694 3.57485 83.95 3.57412C83.9384 3.57368 83.9189 3.57295 83.9073 3.57251C83.9035 3.57237 83.8899 3.57185 83.8861 3.57171C83.8826 3.57158 83.8791 3.57145 83.8755 3.57131C83.872 3.57118 83.8685 3.57105 83.865 3.57092C83.846 3.5702 83.8418 3.57004 83.823 3.56933C83.8116 3.56891 83.7927 3.56819 83.7814 3.56777C83.7789 3.56767 83.7633 3.56708 83.7608 3.56699C83.7574 3.56686 83.7539 3.56673 83.7505 3.5666C83.7471 3.56647 83.7436 3.56634 83.7402 3.56621C83.7218 3.56552 83.7177 3.56536 83.6994 3.56467C83.6883 3.56426 83.6699 3.56356 83.6589 3.56315C83.6565 3.56306 83.6413 3.56248 83.6389 3.56239C83.6355 3.56227 83.6322 3.56214 83.6288 3.56202C83.6255 3.56189 83.6222 3.56176 83.6189 3.56164C83.6009 3.56096 83.5969 3.56081 83.5792 3.56014C83.5663 3.55966 83.5526 3.55914 83.5398 3.55866C83.5374 3.55857 83.5227 3.55801 83.5203 3.55792C83.5171 3.5578 83.5138 3.55768 83.5106 3.55756C83.5073 3.55744 83.5041 3.55731 83.5009 3.55719C83.4856 3.55661 83.4775 3.55631 83.4623 3.55574C83.4498 3.55527 83.4365 3.55476 83.4241 3.5543C83.4218 3.55421 83.4074 3.55367 83.4051 3.55358C83.402 3.55346 83.3988 3.55335 83.3957 3.55323C83.3926 3.55311 83.3894 3.55299 83.3863 3.55287C83.3714 3.55231 83.3636 3.55202 83.3488 3.55146C83.3367 3.551 83.3238 3.55052 83.3118 3.55006C83.3095 3.54998 83.2956 3.54945 83.2934 3.54937C83.2903 3.54925 83.2873 3.54914 83.2842 3.54902C83.2812 3.54891 83.2781 3.54879 83.2751 3.54868C83.2607 3.54814 83.253 3.54785 83.2388 3.54731C83.2357 3.5472 83.2327 3.54708 83.2297 3.54697C83.2267 3.54686 83.2237 3.54674 83.2207 3.54663C83.2078 3.54614 83.2157 3.54644 83.2028 3.54596C83.2016 3.54591 83.1862 3.54533 83.185 3.54528C83.182 3.54517 83.1791 3.54506 83.1761 3.54495C83.1731 3.54484 83.1702 3.54473 83.1672 3.54462C83.1533 3.54409 83.1459 3.54381 83.1321 3.54329C83.1206 3.54286 83.1085 3.5424 83.0972 3.54198C83.0961 3.54193 83.0811 3.54137 83.08 3.54133C83.0771 3.54122 83.0742 3.54111 83.0714 3.541C83.0685 3.54089 83.0657 3.54079 83.0628 3.54068C83.0493 3.54017 83.0422 3.5399 83.0287 3.5394C83.0177 3.53898 83.006 3.53854 82.9951 3.53813C82.9939 3.53808 82.9795 3.53754 82.9784 3.5375C82.9756 3.53739 82.9728 3.53729 82.9701 3.53718C82.9673 3.53708 82.9645 3.53697 82.9618 3.53687C82.9487 3.53638 82.9418 3.53612 82.9288 3.53563C82.9261 3.53553 82.9234 3.53542 82.9207 3.53532C82.9179 3.53522 82.9152 3.53512 82.9125 3.53501C82.9008 3.53457 82.908 3.53484 82.8963 3.5344C82.8637 3.53317 82.8644 3.5332 82.8323 3.53199C82.8184 3.53147 82.7832 3.53014 82.7698 3.52964C82.7576 3.52918 82.7512 3.52893 82.7392 3.52848C82.7276 3.52804 82.7203 3.52777 82.7089 3.52734C82.6785 3.52619 82.6792 3.52622 82.6494 3.5251C82.6365 3.52461 82.6039 3.52338 82.5914 3.52291C82.5817 3.52254 82.5726 3.5222 82.563 3.52184C82.5607 3.52175 82.5583 3.52166 82.556 3.52157C82.5536 3.52149 82.5513 3.5214 82.549 3.52131C82.5389 3.52093 82.545 3.52116 82.535 3.52078C82.5069 3.51973 82.5076 3.51975 82.48 3.51871C82.4652 3.51815 82.4409 3.51724 82.4266 3.5167C82.4176 3.51636 82.4093 3.51605 82.4004 3.51571C82.3983 3.51563 82.3961 3.51555 82.394 3.51547C82.3918 3.51539 82.3897 3.51531 82.3875 3.51522C82.3782 3.51487 82.3839 3.51509 82.3747 3.51474C82.3517 3.51387 82.3467 3.51369 82.3242 3.51284C82.3106 3.51233 82.2884 3.51149 82.2753 3.51099C82.2684 3.51074 82.2582 3.51035 82.2514 3.51009C82.2411 3.50971 82.238 3.50959 82.2279 3.50921C82.2069 3.50842 82.2024 3.50825 82.182 3.50748C82.1696 3.50701 82.1494 3.50625 82.1376 3.5058C82.1337 3.50566 82.1197 3.50513 82.1159 3.50499C82.1141 3.50492 82.1124 3.50485 82.1106 3.50479C82.1088 3.50472 82.107 3.50465 82.1052 3.50458C82.097 3.50427 82.1029 3.50449 82.0947 3.50419C82.0757 3.50347 82.0717 3.50332 82.0533 3.50263C82.04 3.50213 82.0261 3.5016 82.0134 3.50112C82.011 3.50103 81.9963 3.50048 81.994 3.50039C81.9924 3.50033 81.9908 3.50027 81.9892 3.50021C81.9876 3.50015 81.986 3.50009 81.9844 3.50003C81.9776 3.49977 81.9818 3.49993 81.975 3.49967C81.9601 3.49911 81.9525 3.49883 81.9381 3.49828C81.9263 3.49784 81.914 3.49738 81.9027 3.49695C81.9015 3.49691 81.8867 3.49635 81.8856 3.49631C81.8842 3.49625 81.8828 3.4962 81.8814 3.49615C81.88 3.49609 81.8786 3.49604 81.8772 3.49599C81.8712 3.49576 81.8748 3.4959 81.8689 3.49567C81.8558 3.49518 81.8491 3.49493 81.8365 3.49445C81.8352 3.4944 81.8339 3.49436 81.8326 3.49431C81.8312 3.49426 81.8299 3.49421 81.8286 3.49416C81.823 3.49395 81.8265 3.49408 81.8209 3.49387C81.809 3.49342 81.8174 3.49373 81.8056 3.49329C81.7753 3.49215 81.7767 3.4922 81.7484 3.49113C81.7333 3.49057 81.7103 3.4897 81.6973 3.48921C81.693 3.48904 81.6777 3.48847 81.6739 3.48833C81.673 3.48829 81.672 3.48826 81.6711 3.48822C81.6702 3.48818 81.6692 3.48815 81.6683 3.48811C81.664 3.48795 81.6671 3.48807 81.6628 3.48791C81.6544 3.48759 81.6603 3.48781 81.6521 3.4875C81.6331 3.48679 81.6299 3.48667 81.6129 3.48603C81.5918 3.48523 81.5658 3.48425 81.5527 3.48376C81.5485 3.4836 81.5339 3.48305 81.5317 3.48296C81.5313 3.48295 81.5309 3.48294 81.5305 3.48292C81.5302 3.48291 81.5298 3.48289 81.5294 3.48288C81.5278 3.48282 81.529 3.48286 81.5273 3.4828C81.5242 3.48268 81.5264 3.48276 81.5234 3.48265C81.5172 3.48242 81.5223 3.48261 81.5166 3.4824C81.5069 3.48203 81.5153 3.48235 81.5076 3.48206C81.5062 3.482 81.5062 3.482 81.5053 3.48197C81.5049 3.48196 81.505 3.48196 81.5047 3.48195C81.5047 3.48195 81.5047 3.48195 81.5046 3.48194C81.5046 3.48194 81.5046 3.48194 81.5046 3.48194C81.5046 3.48194 81.5046 3.48194 81.4989 3.63184ZM84.4435 3.69035C83.9654 4.83762 83.2845 6.42265 82.4005 8.4458L82.6754 8.56592C83.5597 6.54219 84.2414 4.95535 84.7204 3.80574L84.4435 3.69035ZM82.4005 8.44577C81.5104 10.4817 81.0027 11.619 80.8735 11.8685L81.1399 12.0065C81.275 11.7456 81.7882 10.5951 82.6754 8.56595L82.4005 8.44577ZM80.8733 11.869C80.537 12.5236 80.1506 13.0813 79.7149 13.5436L79.9333 13.7494C80.3909 13.2638 80.7928 12.6821 81.1401 12.006L80.8733 11.869ZM79.7147 13.5439C78.7824 14.5377 77.4969 15.0414 75.8388 15.0414V15.3414C77.5621 15.3414 78.9335 14.8152 79.9335 13.7491L79.7147 13.5439ZM75.9664 15.1126L74.7837 13.1985L74.5285 13.3562L75.7111 15.2703L75.9664 15.1126ZM74.6561 13.4273C74.9594 13.4273 75.3873 13.3132 75.9274 13.1026L75.8185 12.8231C75.2831 13.0318 74.8997 13.1273 74.6561 13.1273V13.4273ZM75.9282 13.1023C76.4521 12.8946 76.8749 12.6761 77.1918 12.4449C77.5078 12.2145 77.7287 11.9641 77.8317 11.6894L77.5508 11.5841C77.4761 11.7833 77.3051 11.9909 77.015 12.2025C76.7258 12.4135 76.3282 12.621 75.8176 12.8235L75.9282 13.1023Z" fill="black"/>
</svg>
