<svg width="50" height="50" viewBox="0 0 50 50" fill="none" xmlns="http://www.w3.org/2000/svg">
<circle cx="25" cy="25" r="24" stroke="black" stroke-width="1.5"/>
<path fill-rule="evenodd" clip-rule="evenodd" d="M36.1252 19.2996C35.8372 19.0596 34.7332 19.0596 33.6292 19.0596C32.5252 19.0596 31.4212 19.0596 31.1812 19.2036C30.9412 19.2996 30.4132 20.5956 29.7412 21.8916C28.9732 23.3796 28.0132 24.8196 27.3892 24.7716C26.5732 24.7716 26.7652 22.3236 26.8612 20.4996C26.8612 19.2996 26.6692 18.9156 26.5252 18.8196C26.0932 18.5796 24.9412 18.2916 24.9412 18.2916C24.9412 18.2916 21.4852 18.0516 21.0052 19.5396C21.6772 19.6356 22.7812 19.4436 22.3492 24.0036C22.3012 24.2436 21.8212 26.1156 20.2372 23.5716C19.8532 22.9476 18.3172 19.1076 17.7412 19.0596C16.0132 19.0116 14.2372 18.9636 13.6132 19.2996C13.0372 19.6356 14.3812 22.2756 16.6372 25.7796C18.4612 28.6596 20.4292 30.9156 23.7892 31.4916C24.4132 31.5396 26.0932 31.6356 26.6212 31.3956C26.9572 31.2036 26.5252 28.7076 27.7252 28.4676C28.2532 28.3716 30.3172 31.0596 31.0852 31.3956C31.5652 31.5876 32.5732 31.6836 33.6292 31.6356C34.7812 31.5876 36.0772 31.7316 36.2212 30.9636C36.5092 29.2356 32.7652 26.9796 32.6212 25.9236C32.5252 25.1556 34.0132 23.7636 34.7332 22.6596C35.6932 21.3636 36.7012 19.7796 36.1252 19.2996Z" stroke="black" stroke-width="1.5" stroke-miterlimit="10" stroke-linejoin="round"/>
</svg>
